<svg width="22" height="24" viewBox="0 0 22 24" fill="none" xmlns="http://www.w3.org/2000/svg">
<path d="M2.99183 10.3935C2.99183 15.4226 1.75276 16.9592 0.997258 17.4063C0.362532 17.7974 0 18.468 0 19.1385C0 20.3119 0.997258 21.206 2.23633 21.206H7.37366C7.73624 22.7987 9.21708 24 11 24C12.7829 24 14.2638 22.7987 14.6263 21.206H19.7637C21.0027 21.206 22 20.284 22 19.1385C22 18.44 21.6374 17.7974 21.0027 17.4063C20.2472 16.9313 19.0082 15.3946 19.0082 10.3935C19.0082 5.69971 15.9257 3.82766 13.6592 3.04536C13.6893 2.87775 13.7197 2.68208 13.7197 2.51446C13.7197 1.11748 12.511 0 11 0C9.48901 0 8.28032 1.11748 8.28032 2.51446C8.28032 2.68206 8.31046 2.87773 8.34082 3.04536C6.07411 3.79978 2.99184 5.69976 2.99184 10.3935H2.99183ZM11.0001 22.9104C9.88202 22.9104 8.91488 22.2119 8.58246 21.2339H13.4178C13.0853 22.2119 12.1182 22.9104 11.0001 22.9104ZM20.7914 19.1663C20.7914 19.6972 20.3078 20.1443 19.7336 20.1443H2.26644C1.69221 20.1443 1.20864 19.6972 1.20864 19.1663C1.20864 18.8868 1.32942 18.6354 1.57121 18.4399H20.4889C20.6704 18.6356 20.7914 18.887 20.7914 19.1663H20.7914ZM11.0001 1.11738C11.8463 1.11738 12.5111 1.73205 12.5111 2.51436C12.5111 2.59816 12.5111 2.65409 12.481 2.7379C11.2419 2.48649 10.0937 2.62622 9.48913 2.7379C9.48913 2.65409 9.45899 2.59816 9.45899 2.51436C9.48913 1.73205 10.154 1.11738 11.0002 1.11738H11.0001ZM9.39845 3.91133H9.4286C9.4286 3.91133 10.0934 3.71566 11.0303 3.71566C11.5138 3.71566 12.0275 3.7716 12.6017 3.9392H12.6319C14.989 4.55387 17.8297 6.17442 17.8297 10.4212C17.8297 13.6622 18.3133 15.9811 19.3105 17.3502H2.7198C3.68695 15.9532 4.20063 13.6342 4.20063 10.4212C4.20063 6.14643 7.01098 4.52593 9.39846 3.91126L9.39845 3.91133Z" fill="white"/>
</svg>
